<svg width="185" height="185" viewBox="0 0 185 185" fill="none" xmlns="http://www.w3.org/2000/svg">
<path d="M0.104926 0C4.12303 0.366304 14.4754 0.063358 18.8345 0.063358L57.7387 0.0610018L184.623 0.0954822C184.868 9.88373 184.689 20.3554 184.691 30.1849L184.647 73.9522C179.841 73.7253 174.249 73.8496 169.397 73.8464L142.786 73.8402L142.799 41.9594C120.151 41.6759 96.9435 41.9399 74.2497 41.9399L41.979 41.9594L41.9831 184.577C28.7248 184.916 13.48 184.681 0.120546 184.558C-0.126753 162.363 0.0831152 139.74 0.0828205 117.501L0.104926 0Z" fill="#FDDA10"></path>
<path d="M142.194 110.851C146.304 111.151 153.048 110.962 157.315 110.961L184.543 110.925C184.96 135.067 184.636 160.418 184.57 184.636C161.99 184.887 138.979 184.654 116.365 184.649L74.0733 184.625C73.8 171.107 73.8868 156.37 74.0897 142.842L142.213 142.84L142.194 110.851Z" fill="#FDDA10"></path>
<path d="M74.0583 73.9008C87.2119 73.986 100.366 74.0068 113.52 73.9628C113.423 85.4862 114.016 99.6254 113.435 110.823C100.743 110.684 86.6999 110.518 74.0715 110.851C73.7195 99.077 74.0141 85.7644 74.0583 73.9008Z" fill="#FEFEFE"></path>
</svg>