<svg viewBox="0 0 717 270" fill="none" xmlns="http://www.w3.org/2000/svg">
<path d="M196.79 0C198.914 0.169841 201.668 0.156521 203.178 1.737C207.368 6.1714 206.727 14.1821 206.552 19.904C206.179 32.0977 206.333 44.2795 206.328 56.485L206.301 144.934C206.3 160.685 206.057 176.28 206.446 192.426C207.624 241.407 260.687 205.693 285.878 233.059C292.214 238.947 299.441 250.192 299.824 259.009C300.398 272.272 276.386 268.545 267.9 268.536L219.303 268.523L69.9492 268.458C52.9922 267.621 36.8504 259.353 26.6442 245.691C12.8452 227.22 16.5486 206.029 16.2136 184.496C16.083 176.123 15.6432 167.208 16.6645 158.92C18.5387 146.295 31.7658 137.845 43.9569 140.148C53.5042 141.951 57.4747 149.982 62.2509 157.336C62.4804 152.686 62.1351 147.798 62.7749 143.153C64.6712 129.391 77.5264 121.584 90.6686 123.801C102.959 125.873 106.177 133.98 112.626 143.312C113.059 130.227 110.385 119.349 123.883 111.334C129.511 108.003 136.222 107.051 142.548 108.684C153.527 111.529 157.282 119.653 162.538 128.703C164.504 108.715 163.456 85.1161 163.422 64.733C163.378 38.41 163.356 5.21982 196.79 0Z" fill="#F9F8F9"></path>
</svg>