<svg viewBox="0 0 717 270" fill="none" xmlns="http://www.w3.org/2000/svg">
<path d="M267.105 0C271.123 0.366304 281.475 0.063358 285.835 0.063358L324.739 0.0610018L451.623 0.0954822C451.868 9.88373 451.689 20.3554 451.691 30.1849L451.647 73.9522C446.841 73.7253 441.249 73.8496 436.397 73.8464L409.786 73.8402L409.799 41.9594C387.151 41.6759 363.943 41.9399 341.25 41.9399L308.979 41.9594L308.983 184.577C295.725 184.916 280.48 184.681 267.121 184.558C266.873 162.363 267.083 139.74 267.083 117.501L267.105 0Z" fill="#F9F8F9"></path>
<path d="M409.194 110.852C413.304 111.151 420.048 110.962 424.315 110.961L451.543 110.925C451.96 135.067 451.636 160.418 451.57 184.637C428.99 184.887 405.979 184.654 383.365 184.649L341.073 184.625C340.8 171.107 340.887 156.37 341.09 142.842L409.213 142.84L409.194 110.852Z" fill="white"></path>
<path d="M341.058 73.9006C354.212 73.9859 367.366 74.0067 380.52 73.9626C380.423 85.486 381.016 99.6253 380.435 110.823C367.743 110.684 353.7 110.518 341.072 110.851C340.719 99.0769 341.014 85.7643 341.058 73.9006Z" fill="#FEFEFE"></path>
</svg>