<svg width="717" height="514" viewBox="0 0 717 514" fill="none" xmlns="http://www.w3.org/2000/svg">
<path d="M196.79 0C198.914 0.169841 201.668 0.156521 203.178 1.737C207.368 6.1714 206.727 14.1821 206.552 19.904C206.179 32.0977 206.333 44.2795 206.328 56.485L206.301 144.934C206.3 160.685 206.057 176.28 206.446 192.426C207.624 241.407 260.687 205.693 285.878 233.059C292.214 238.947 299.441 250.192 299.824 259.009C300.398 272.272 276.386 268.545 267.9 268.536L219.303 268.523L69.9492 268.458C52.9922 267.621 36.8504 259.353 26.6442 245.691C12.8452 227.22 16.5486 206.029 16.2136 184.496C16.083 176.123 15.6432 167.208 16.6645 158.92C18.5387 146.295 31.7658 137.845 43.9569 140.148C53.5042 141.951 57.4747 149.982 62.2509 157.336C62.4804 152.686 62.1351 147.798 62.7749 143.153C64.6712 129.391 77.5264 121.584 90.6686 123.801C102.959 125.873 106.177 133.98 112.626 143.312C113.059 130.227 110.385 119.349 123.883 111.334C129.511 108.003 136.222 107.051 142.548 108.684C153.527 111.529 157.282 119.653 162.538 128.703C164.504 108.715 163.456 85.1161 163.422 64.733C163.378 38.41 163.356 5.21982 196.79 0Z" fill="#F9F8F9"></path>
<path d="M517.386 0.00540836C524.713 -0.128098 531.878 2.21349 537.721 6.65629C548.284 14.594 552.804 27.8208 554.001 40.7108C556.593 68.4683 551.733 101.408 555.404 128.618C556.704 126.612 558.455 124.086 559.511 122.033C567.001 107.449 586.014 102.19 598.158 114.596C605.588 122.188 605.684 129.958 605.603 139.905L606.637 140.631C614.46 131.133 618.123 123.195 631.907 123.394C638.473 123.451 644.744 126.127 649.346 130.833C656.895 138.709 655.728 147.075 655.61 157.29C657.671 154.72 660.072 151.172 661.963 148.301C672.614 132.115 699.316 141.102 701.451 159.046C702.47 167.549 702.116 178.618 701.887 187.497C701.584 199.19 703.054 213.378 700.69 224.792C699.176 232.135 696.17 239.087 691.863 245.217C681.921 259.219 667.791 265.516 651.415 268.297C634.869 269.165 614.09 268.612 597.16 268.607L501.032 268.58L450.331 268.697C443.72 268.72 422.225 270.726 419.285 264.537C415.281 255.572 424.463 240.991 430.025 234.738C449.282 213.1 477.336 226.765 499.739 216.967C503.248 215.431 509.526 208.24 510.073 204.154C512.607 185.26 511.617 164.953 511.609 145.758V41.3717C511.587 30.4152 510.597 15.6286 512.451 4.95332C512.88 2.48864 515.266 1.0297 517.386 0.00540836Z" fill="#F9F8F9"></path>
<path d="M267.105 0C271.123 0.366304 281.475 0.063358 285.835 0.063358L324.739 0.0610018L451.623 0.0954822C451.868 9.88373 451.689 20.3554 451.691 30.1849L451.647 73.9522C446.841 73.7253 441.249 73.8496 436.397 73.8464L409.786 73.8402L409.799 41.9594C387.151 41.6759 363.943 41.9399 341.25 41.9399L308.979 41.9594L308.983 184.577C295.725 184.916 280.48 184.681 267.121 184.558C266.873 162.363 267.083 139.74 267.083 117.501L267.105 0Z" fill="#F9F8F9"></path>
<path d="M409.194 110.852C413.304 111.151 420.048 110.962 424.315 110.961L451.543 110.925C451.96 135.067 451.636 160.418 451.57 184.637C428.99 184.887 405.979 184.654 383.365 184.649L341.073 184.625C340.8 171.107 340.887 156.37 341.09 142.842L409.213 142.84L409.194 110.852Z" fill="white"></path>
<path d="M341.058 73.9006C354.212 73.9859 367.366 74.0067 380.52 73.9626C380.423 85.486 381.016 99.6253 380.435 110.823C367.743 110.684 353.7 110.518 341.072 110.851C340.719 99.0769 341.014 85.7643 341.058 73.9006Z" fill="#FEFEFE"></path>
<path d="M31.187 359.042H44.729C46.727 359.042 48.651 358.894 50.501 358.598C52.351 358.302 53.979 357.747 55.385 356.933C56.791 356.045 57.901 354.824 58.715 353.27C59.603 351.716 60.047 349.681 60.047 347.165C60.047 344.649 59.603 342.614 58.715 341.06C57.901 339.506 56.791 338.322 55.385 337.508C53.979 336.62 52.351 336.028 50.501 335.732C48.651 335.436 46.727 335.288 44.729 335.288H31.187V359.042ZM13.76 321.746H49.502C54.46 321.746 58.678 322.486 62.156 323.966C65.634 325.372 68.446 327.259 70.592 329.627C72.812 331.995 74.403 334.696 75.365 337.73C76.401 340.764 76.919 343.909 76.919 347.165C76.919 350.347 76.401 353.492 75.365 356.6C74.403 359.634 72.812 362.335 70.592 364.703C68.446 367.071 65.634 368.995 62.156 370.475C58.678 371.881 54.46 372.584 49.502 372.584H31.187V401H13.76V321.746ZM108.886 321.746H168.16V336.398H126.313V353.381H164.719V366.923H126.313V386.348H169.048V401H108.886V321.746ZM201.953 321.746H219.38V386.348H258.008V401H201.953V321.746ZM288.841 321.746H306.268V386.348H344.896V401H288.841V321.746ZM442.994 371.03C442.994 381.76 439.997 389.752 434.003 395.006C428.009 400.186 419.721 402.776 409.139 402.776C398.409 402.776 390.084 400.186 384.164 395.006C378.318 389.826 375.395 381.834 375.395 371.03V321.746H392.822V371.03C392.822 373.176 393.007 375.285 393.377 377.357C393.747 379.429 394.524 381.279 395.708 382.907C396.892 384.461 398.52 385.756 400.592 386.792C402.738 387.754 405.587 388.235 409.139 388.235C415.355 388.235 419.647 386.866 422.015 384.128C424.383 381.316 425.567 376.95 425.567 371.03V321.746H442.994V371.03ZM531.929 348.386C531.633 346.388 530.967 344.575 529.931 342.947C528.895 341.245 527.6 339.765 526.046 338.507C524.492 337.249 522.716 336.287 520.718 335.621C518.794 334.881 516.759 334.511 514.613 334.511C510.691 334.511 507.361 335.288 504.623 336.842C501.885 338.322 499.665 340.357 497.963 342.947C496.261 345.463 495.003 348.349 494.189 351.605C493.449 354.861 493.079 358.228 493.079 361.706C493.079 365.036 493.449 368.292 494.189 371.474C495.003 374.582 496.261 377.394 497.963 379.91C499.665 382.426 501.885 384.461 504.623 386.015C507.361 387.495 510.691 388.235 514.613 388.235C519.941 388.235 524.085 386.607 527.045 383.351C530.079 380.095 531.929 375.803 532.595 370.475H549.467C549.023 375.433 547.876 379.91 546.026 383.906C544.176 387.902 541.734 391.306 538.7 394.118C535.666 396.93 532.114 399.076 528.044 400.556C523.974 402.036 519.497 402.776 514.613 402.776C508.545 402.776 503.069 401.74 498.185 399.668C493.375 397.522 489.305 394.599 485.975 390.899C482.645 387.199 480.092 382.87 478.316 377.912C476.54 372.88 475.652 367.478 475.652 361.706C475.652 355.786 476.54 350.31 478.316 345.278C480.092 340.172 482.645 335.732 485.975 331.958C489.305 328.184 493.375 325.224 498.185 323.078C503.069 320.932 508.545 319.859 514.613 319.859C518.979 319.859 523.086 320.488 526.934 321.746C530.856 323.004 534.334 324.854 537.368 327.296C540.476 329.664 543.029 332.624 545.027 336.176C547.025 339.728 548.283 343.798 548.801 348.386H531.929ZM582.457 321.746H599.884V401H582.457V321.746ZM653.711 386.348H669.251C671.767 386.348 674.209 385.941 676.577 385.127C678.945 384.313 681.054 382.981 682.904 381.131C684.754 379.207 686.234 376.728 687.344 373.694C688.454 370.66 689.009 366.96 689.009 362.594C689.009 358.598 688.602 355.009 687.788 351.827C687.048 348.571 685.79 345.796 684.014 343.502C682.238 341.208 679.87 339.469 676.91 338.285C674.024 337.027 670.435 336.398 666.143 336.398H653.711V386.348ZM636.284 321.746H670.472C675.578 321.746 680.314 322.56 684.68 324.188C689.12 325.816 692.931 328.258 696.113 331.514C699.369 334.77 701.885 338.84 703.661 343.724C705.511 348.608 706.436 354.343 706.436 360.929C706.436 366.701 705.696 372.029 704.216 376.913C702.736 381.797 700.479 386.015 697.445 389.567C694.485 393.119 690.748 395.931 686.234 398.003C681.794 400.001 676.54 401 670.472 401H636.284V321.746Z" fill="#F9F8F9"></path>
<path d="M186.49 448.02H221V455.58H195.24V468.67H217.85V475.81H195.24V498H186.49V448.02ZM241.284 448.02H265.154C270.661 448.02 274.791 449.21 277.544 451.59C280.297 453.97 281.674 457.283 281.674 461.53C281.674 463.91 281.324 465.893 280.624 467.48C279.924 469.02 279.107 470.28 278.174 471.26C277.241 472.193 276.307 472.87 275.374 473.29C274.487 473.71 273.834 473.99 273.414 474.13V474.27C274.161 474.363 274.954 474.597 275.794 474.97C276.681 475.343 277.497 475.95 278.244 476.79C278.991 477.583 279.597 478.633 280.064 479.94C280.577 481.247 280.834 482.88 280.834 484.84C280.834 487.78 281.044 490.463 281.464 492.89C281.931 495.27 282.631 496.973 283.564 498H274.184C273.531 496.927 273.134 495.737 272.994 494.43C272.901 493.123 272.854 491.863 272.854 490.65C272.854 488.363 272.714 486.403 272.434 484.77C272.154 483.09 271.641 481.713 270.894 480.64C270.147 479.52 269.121 478.703 267.814 478.19C266.554 477.677 264.921 477.42 262.914 477.42H250.034V498H241.284V448.02ZM250.034 470.77H264.384C267.184 470.77 269.307 470.117 270.754 468.81C272.201 467.457 272.924 465.45 272.924 462.79C272.924 461.203 272.691 459.92 272.224 458.94C271.757 457.913 271.104 457.12 270.264 456.56C269.471 456 268.537 455.627 267.464 455.44C266.437 455.253 265.364 455.16 264.244 455.16H250.034V470.77ZM317.241 448.02H326.551L345.801 498H336.421L331.731 484.77H311.781L307.091 498H298.061L317.241 448.02ZM314.161 478.12H329.421L321.931 456.63H321.721L314.161 478.12ZM363.721 448.02H376.041L389.831 487.15H389.971L403.411 448.02H415.591V498H407.261V459.43H407.121L393.261 498H386.051L372.191 459.43H372.051V498H363.721V448.02ZM439.368 448.02H475.348V455.58H448.118V468.67H473.318V475.81H448.118V490.44H475.838V498H439.368V448.02ZM502.499 481.34C502.499 483.253 502.826 484.887 503.479 486.24C504.133 487.593 505.043 488.713 506.209 489.6C507.376 490.44 508.706 491.07 510.199 491.49C511.739 491.863 513.396 492.05 515.169 492.05C517.083 492.05 518.716 491.84 520.069 491.42C521.423 490.953 522.519 490.37 523.359 489.67C524.199 488.97 524.806 488.177 525.179 487.29C525.553 486.357 525.739 485.423 525.739 484.49C525.739 482.577 525.296 481.177 524.409 480.29C523.569 479.357 522.636 478.703 521.609 478.33C519.836 477.677 517.759 477.07 515.379 476.51C513.046 475.903 510.153 475.133 506.699 474.2C504.553 473.64 502.756 472.917 501.309 472.03C499.909 471.097 498.789 470.07 497.949 468.95C497.109 467.83 496.503 466.64 496.129 465.38C495.803 464.12 495.639 462.837 495.639 461.53C495.639 459.01 496.153 456.84 497.179 455.02C498.253 453.153 499.653 451.613 501.379 450.4C503.106 449.187 505.066 448.3 507.259 447.74C509.453 447.133 511.669 446.83 513.909 446.83C516.523 446.83 518.973 447.18 521.259 447.88C523.593 448.533 525.623 449.537 527.349 450.89C529.123 452.243 530.523 453.923 531.549 455.93C532.576 457.89 533.089 460.177 533.089 462.79H524.339C524.106 459.57 523.009 457.307 521.049 456C519.089 454.647 516.593 453.97 513.559 453.97C512.533 453.97 511.483 454.087 510.409 454.32C509.336 454.507 508.356 454.857 507.469 455.37C506.583 455.837 505.836 456.49 505.229 457.33C504.669 458.17 504.389 459.22 504.389 460.48C504.389 462.253 504.926 463.653 505.999 464.68C507.119 465.66 508.566 466.407 510.339 466.92C510.526 466.967 511.249 467.177 512.509 467.55C513.816 467.877 515.263 468.25 516.849 468.67C518.436 469.09 519.976 469.51 521.469 469.93C523.009 470.303 524.106 470.583 524.759 470.77C526.393 471.283 527.816 471.983 529.029 472.87C530.243 473.757 531.246 474.783 532.039 475.95C532.879 477.07 533.486 478.283 533.859 479.59C534.279 480.897 534.489 482.203 534.489 483.51C534.489 486.31 533.906 488.713 532.739 490.72C531.619 492.68 530.126 494.29 528.259 495.55C526.393 496.81 524.269 497.72 521.889 498.28C519.509 498.887 517.083 499.19 514.609 499.19C511.763 499.19 509.079 498.84 506.559 498.14C504.039 497.44 501.846 496.367 499.979 494.92C498.113 493.473 496.619 491.63 495.499 489.39C494.379 487.103 493.796 484.42 493.749 481.34H502.499Z" fill="white"></path>
</svg>