<svg viewBox="0 0 717 270" fill="none" xmlns="http://www.w3.org/2000/svg">
<path d="M517.386 0.00540836C524.713 -0.128098 531.878 2.21349 537.721 6.65629C548.284 14.594 552.804 27.8208 554.001 40.7108C556.593 68.4683 551.733 101.408 555.404 128.618C556.704 126.612 558.455 124.086 559.511 122.033C567.001 107.449 586.014 102.19 598.158 114.596C605.588 122.188 605.684 129.958 605.603 139.905L606.637 140.631C614.46 131.133 618.123 123.195 631.907 123.394C638.473 123.451 644.744 126.127 649.346 130.833C656.895 138.709 655.728 147.075 655.61 157.29C657.671 154.72 660.072 151.172 661.963 148.301C672.614 132.115 699.316 141.102 701.451 159.046C702.47 167.549 702.116 178.618 701.887 187.497C701.584 199.19 703.054 213.378 700.69 224.792C699.176 232.135 696.17 239.087 691.863 245.217C681.921 259.219 667.791 265.516 651.415 268.297C634.869 269.165 614.09 268.612 597.16 268.607L501.032 268.58L450.331 268.697C443.72 268.72 422.225 270.726 419.285 264.537C415.281 255.572 424.463 240.991 430.025 234.738C449.282 213.1 477.336 226.765 499.739 216.967C503.248 215.431 509.526 208.24 510.073 204.154C512.607 185.26 511.617 164.953 511.609 145.758V41.3717C511.587 30.4152 510.597 15.6286 512.451 4.95332C512.88 2.48864 515.266 1.0297 517.386 0.00540836Z" fill="#F9F8F9"></path>
</svg>